name 900006_2.mot
datacolumns 141
datarows 4
range 0.50833333 0.53333336
endheader

                time	           pelvis_tx	           pelvis_ty	           pelvis_tz	         pelvis_tilt	         pelvis_list	     pelvis_rotation	       hip_flexion_r	     hip_adduction_r	      hip_rotation_r	        knee_angle_r	       ankle_angle_r	    subtalar_angle_r	         mtp_angle_r	       hip_flexion_l	     hip_adduction_l	      hip_rotation_l	        knee_angle_l	       ankle_angle_l	    subtalar_angle_l	         mtp_angle_l	    lumbar_extension	      lumbar_bending	     lumbar_rotation	    ground_marker_px	    ground_marker_py	    ground_marker_pz	    ground_marker_px	    ground_marker_py	    ground_marker_pz	    ground_marker_px	    ground_marker_py	    ground_marker_pz	    ground_marker_px	    ground_marker_py	    ground_marker_pz	    ground_marker_px	    ground_marker_py	    ground_marker_pz	    ground_marker_px	    ground_marker_py	    ground_marker_pz	    ground_marker_px	    ground_marker_py	    ground_marker_pz	    ground_marker_px	    ground_marker_py	    ground_marker_pz	    ground_marker_px	    ground_marker_py	    ground_marker_pz	    ground_marker_px	    ground_marker_py	    ground_marker_pz	    ground_marker_px	    ground_marker_py	    ground_marker_pz	    ground_marker_px	    ground_marker_py	    ground_marker_pz	    ground_marker_px	    ground_marker_py	    ground_marker_pz	    ground_marker_px	    ground_marker_py	    ground_marker_pz	    ground_marker_px	    ground_marker_py	    ground_marker_pz	    ground_marker_px	    ground_marker_py	    ground_marker_pz	    ground_marker_px	    ground_marker_py	    ground_marker_pz	    ground_marker_px	    ground_marker_py	    ground_marker_pz	    ground_marker_px	    ground_marker_py	    ground_marker_pz	    ground_marker_px	    ground_marker_py	    ground_marker_pz	    ground_marker_px	    ground_marker_py	    ground_marker_pz	    ground_marker_px	    ground_marker_py	    ground_marker_pz	    ground_marker_px	    ground_marker_py	    ground_marker_pz	    ground_marker_px	    ground_marker_py	    ground_marker_pz	    ground_marker_px	    ground_marker_py	    ground_marker_pz	    ground_marker_px	    ground_marker_py	    ground_marker_pz	    ground_marker_px	    ground_marker_py	    ground_marker_pz	    ground_marker_px	    ground_marker_py	    ground_marker_pz	    ground_marker_px	    ground_marker_py	    ground_marker_pz	    ground_marker_px	    ground_marker_py	    ground_marker_pz	    ground_marker_px	    ground_marker_py	    ground_marker_pz	    ground_marker_px	    ground_marker_py	    ground_marker_pz	    ground_marker_px	    ground_marker_py	    ground_marker_pz	    ground_marker_px	    ground_marker_py	    ground_marker_pz	    ground_marker_px	    ground_marker_py	    ground_marker_pz	    ground_marker_px	    ground_marker_py	    ground_marker_pz	    ground_marker_px	    ground_marker_py	    ground_marker_pz	    ground_marker_px	    ground_marker_py	    ground_marker_pz	    ground_marker_px	    ground_marker_py	    ground_marker_pz	
          0.50833333	          0.83315170	          0.84579706	         -0.25693908	          4.57534170	          0.69713712	          5.80009460	         -6.83849812	         -4.12301016	         -4.89259481	         -4.29067516	          5.95702171	          0.00000000	          0.00000000	         -7.03320074	          0.70265204	          1.71337140	         -1.75146723	          3.91541219	          0.00000000	          0.00000000	         -4.87642574	         -0.37078953	          0.93160504	          0.76246142	          0.76269561	         -0.25202292	          0.76937056	          0.76094031	         -0.18234774	          0.75555235	          0.76445091	         -0.32169810	          0.75833893	          0.42446217	         -0.16536835	          0.74096602	          0.41820055	         -0.32470247	          0.71933824	          0.06499121	         -0.15770879	          0.71516716	          0.06610657	         -0.32974866	          0.83315170	          0.84579706	         -0.25693908	          0.84404057	          0.84303063	         -0.14712912	          0.82226282	          0.84856355	         -0.36674905	          0.65660179	          0.86882442	         -0.20575710	          0.65003848	          0.86904758	         -0.25990361	          0.75924790	          0.42727956	         -0.10894596	          0.73707956	          0.41884896	         -0.38056371	          0.73749948	          0.41929755	         -0.22021408	          0.75258332	          0.42169189	         -0.26562923	          0.71324956	          0.06643964	         -0.12073476	          0.70335889	          0.06746639	         -0.36425900	          0.71877182	          0.06118603	         -0.19127907	          0.71708512	          0.06589159	         -0.29633662	          0.67209435	          0.05268237	         -0.14943995	          0.66993737	          0.04703901	         -0.30849403	          0.80296034	          1.19546068	         -0.26145163	          0.81322730	          1.09384167	         -0.26707578	          0.69591439	          1.26275742	         -0.24024397	          0.81233257	          1.19464147	         -0.20531905	          0.79998589	          1.19663417	         -0.31213671	          0.80615813	          0.04817548	         -0.14468779	          0.80407959	          0.04466618	         -0.35109288	          0.89225501	          0.55477011	         -0.15381780	          0.86235559	          0.57183421	         -0.39655334	          0.84537160	          0.59885812	         -0.11969759	          0.84818673	          0.61331236	         -0.32744846	          0.82796335	          0.54345649	         -0.11759345	          0.83562416	          0.55542314	         -0.32236049	          0.84680486	          0.18063203	         -0.13649416	          0.69515759	          0.17405948	         -0.45015475	          0.76924694	          0.16662635	         -0.15059462	          0.70770514	          0.16212352	         -0.37235007	
          0.51666665	          0.83304673	          0.84580845	         -0.25690597	          4.58838415	          0.71310872	          5.81251144	         -6.83417845	         -4.14091492	         -4.91438818	         -4.34782076	          5.99468231	          0.00000000	          0.00000000	         -7.06015205	          0.70358562	          1.80940795	         -1.71367276	          3.89128518	          0.00000000	          0.00000000	         -4.85498762	         -0.30015391	          0.95771152	          0.76237655	          0.76268923	         -0.25200245	          0.76929843	          0.76091427	         -0.18232906	          0.75545460	          0.76446414	         -0.32167584	          0.75838542	          0.42449969	         -0.16535136	          0.74078166	          0.41811979	         -0.32476205	          0.71914864	          0.06501822	         -0.15770701	          0.71515363	          0.06609763	         -0.32972088	          0.83304673	          0.84580845	         -0.25690597	          0.84395516	          0.84301132	         -0.14710659	          0.82213831	          0.84860557	         -0.36670533	          0.65650851	          0.86883819	         -0.20561762	          0.65011066	          0.86893392	         -0.25987840	          0.75928265	          0.42731807	         -0.10892884	          0.73697835	          0.41877875	         -0.38062885	          0.73716396	          0.41979283	         -0.22036248	          0.75302184	          0.42171639	         -0.26482660	          0.71305138	          0.06646994	         -0.12073450	          0.70339417	          0.06744014	         -0.36424863	          0.71862966	          0.06123920	         -0.19127701	          0.71716160	          0.06585975	         -0.29633296	          0.67086816	          0.05336429	         -0.14963005	          0.67002201	          0.04700864	         -0.30848280	          0.80281222	          1.19547653	         -0.26144642	          0.81318218	          1.09398067	         -0.26721817	          0.69586432	          1.26260984	         -0.24016246	          0.81221247	          1.19467759	         -0.20528166	          0.79979426	          1.19683218	         -0.31211579	          0.80618072	          0.04814800	         -0.14467897	          0.80407929	          0.04468328	         -0.35108450	          0.89226556	          0.55478549	         -0.15381578	          0.86234206	          0.57186407	         -0.39649740	          0.84553325	          0.59907413	         -0.11963183	          0.84800518	          0.61321443	         -0.32734320	          0.82793647	          0.54346466	         -0.11760046	          0.83568156	          0.55566829	         -0.32208905	          0.84682208	          0.18066099	         -0.13646559	          0.69519639	          0.17404729	         -0.45016170	          0.76931107	          0.16654776	         -0.15049787	          0.70778203	          0.16205785	         -0.37236577	
          0.52499998	          0.83295608	          0.84582716	         -0.25687498	          4.60656977	          0.72563082	          5.81796932	         -6.83831501	         -4.15359735	         -4.92728806	         -4.36831808	          5.99983883	          0.00000000	          0.00000000	         -7.08513308	          0.71079201	          1.85730076	         -1.68917382	          3.87201357	          0.00000000	          0.00000000	         -4.89125490	         -0.24306650	          1.03880441	          0.76231265	          0.76268423	         -0.25198582	          0.76923978	          0.76089555	         -0.18231331	          0.75538552	          0.76447296	         -0.32165834	          0.75842035	          0.42453432	         -0.16533823	          0.74067467	          0.41807890	         -0.32476491	          0.71914768	          0.06499661	         -0.15773287	          0.71516812	          0.06607898	         -0.32970163	          0.83295608	          0.84582716	         -0.25687498	          0.84387094	          0.84300882	         -0.14709482	          0.82204127	          0.84864551	         -0.36665514	          0.65641743	          0.86885870	         -0.20546460	          0.65019113	          0.86880034	         -0.25983417	          0.75930840	          0.42735323	         -0.10891557	          0.73691338	          0.41873968	         -0.38063452	          0.73732185	          0.41987637	         -0.22042549	          0.75266695	          0.42206591	         -0.26478595	          0.71304440	          0.06644534	         -0.12076125	          0.70343298	          0.06741370	         -0.36423790	          0.71860921	          0.06132803	         -0.19131710	          0.71711761	          0.06590987	         -0.29630822	          0.67088985	          0.05322829	         -0.14953670	          0.67005813	          0.04699418	         -0.30844721	          0.80265343	          1.19550192	         -0.26144478	          0.81303537	          1.09408140	         -0.26728901	          0.69568503	          1.26268446	         -0.24021564	          0.81215322	          1.19470251	         -0.20519632	          0.79956764	          1.19698656	         -0.31207517	          0.80619222	          0.04814858	         -0.14468867	          0.80408776	          0.04470369	         -0.35109642	          0.89225435	          0.55479908	         -0.15381931	          0.86231959	          0.57193303	         -0.39644581	          0.84555602	          0.59930515	         -0.11962089	          0.84804505	          0.61322111	         -0.32726362	          0.82794255	          0.54349834	         -0.11760221	          0.83565313	          0.55598176	         -0.32204419	          0.84682125	          0.18067618	         -0.13644882	          0.69523102	          0.17403135	         -0.45016432	          0.76941329	          0.16654059	         -0.15039888	          0.70772874	          0.16212440	         -0.37237969	
          0.53333336	          0.83289611	          0.84586239	         -0.25685221	          4.63179445	          0.73417473	          5.81455278	         -6.85465813	         -4.16080141	         -4.93274117	         -4.36495161	          5.98735666	          0.00000000	          0.00000000	         -7.10242414	          0.72668433	          1.82483292	         -1.69527495	          3.86752009	          0.00000000	          0.00000000	         -4.91079283	         -0.27564010	          1.03997910	          0.76228887	          0.76268780	         -0.25198025	          0.76921135	          0.76089239	         -0.18230744	          0.75536638	          0.76448321	         -0.32165307	          0.75844783	          0.42454270	         -0.16532937	          0.74071425	          0.41810003	         -0.32470307	          0.71925241	          0.06495477	         -0.15776166	          0.71521550	          0.06604186	         -0.32970214	          0.83289611	          0.84586239	         -0.25685221	          0.84380203	          0.84303385	         -0.14708722	          0.82199025	          0.84869099	         -0.36661723	          0.65632403	          0.86887527	         -0.20532507	          0.65026385	          0.86867154	         -0.25977984	          0.75932628	          0.42736265	         -0.10890661	          0.73692453	          0.41875228	         -0.38057086	          0.73790848	          0.41960773	         -0.22084557	          0.75253040	          0.42243236	         -0.26436311	          0.71314305	          0.06639875	         -0.12079084	          0.70346284	          0.06738339	         -0.36423221	          0.71850753	          0.06129038	         -0.19133061	          0.71694136	          0.06598181	         -0.29626867	          0.67093176	          0.05295935	         -0.14935051	          0.67000896	          0.04703613	         -0.30858445	          0.80248743	          1.19553590	         -0.26145032	          0.81287706	          1.09407175	         -0.26728916	          0.69553155	          1.26269925	         -0.24020346	          0.81200570	          1.19472134	         -0.20516831	          0.79940718	          1.19695747	         -0.31220251	          0.80619901	          0.04817777	         -0.14471613	          0.80410475	          0.04471504	         -0.35111317	          0.89223868	          0.55482453	         -0.15383516	          0.86229736	          0.57201535	         -0.39641738	          0.84541720	          0.59940231	         -0.11975165	          0.84802300	          0.61324584	         -0.32731161	          0.82787240	          0.54339838	         -0.11776315	          0.83563948	          0.55625695	         -0.32196873	          0.84680891	          0.18067096	         -0.13644548	          0.69525701	          0.17401406	         -0.45016399	          0.76917422	          0.16638383	         -0.15029526	          0.70755255	          0.16230205	         -0.37233680	
